<?xml version="1.0" encoding="utf-8"?>
<!-- Generator: Adobe Illustrator 17.1.0, SVG Export Plug-In . SVG Version: 6.00 Build 0)  -->
<!DOCTYPE svg PUBLIC "-//W3C//DTD SVG 1.1//EN" "http://www.w3.org/Graphics/SVG/1.1/DTD/svg11.dtd">
<svg version="1.1" id="Layer_1" xmlns="http://www.w3.org/2000/svg" xmlns:xlink="http://www.w3.org/1999/xlink" x="0px" y="0px"
	 viewBox="0 0 24 24" enable-background="new 0 0 24 24" xml:space="preserve">
<path display="none" d="M23.9,0L6,5v11c-3.1-0.6-5.6,1-6,3.4v1.4c0,0.3,0.1,0.5,0.2,0.8C0.8,23.2,2,24,3.3,24h0.1
	C5.6,24,8,21.8,8,18C8,15.4,8,8,8,8l14-4l0,10c-4-0.8-7,2.2-5.8,5.5c1.6,4.4,7.8,2.6,7.8-3.6C24,13.9,24,0.6,23.9,0L23.9,0L23.9,0z"
	/>
<path fill-rule="evenodd" clip-rule="evenodd" d="M20,24h-2h-6v0H4c-1.1,0-2-0.9-2-2V2c0-1.1,0.9-2,2-2h2h6v0h2v6v2h2h6V6h-6V0l0,0
	l6,6l0,16C22,23.1,21.1,24,20,24z M18,14h-6v0H6v2h6v0h6V14z M18,18h-6v0H6v2h6v0h6V18z"/>
</svg>
